# xmcd
# 
# Track frame offsets:
#     150
#     12785
#     24052
#     34815
#     47202
#     59822
#     69957
#     82510
#     95762
#     113967
#     125930
#     140437
#     150802
#     177387
#     190877
#     203740
#     216400
#     226237
#     243517
#     258755
#     269550
# 
# Disc length: 3755
# 
# Revision: 9
# Processed by: cddbd v1.5.2PL0 Copyright (c) Steve Scherf et al.
# Submitted via: BonkEnc v1.0.8
# 
DISCID=230ea915
DTITLE=50-es 60-as Évek Nagy Slágerei 5.CD
DYEAR=0
DGENRE=Pop
TTITLE0=You are my destiny
TTITLE1=Hawaiian wedding song
TTITLE2=Broken-hearted melody
TTITLE3=Crazy
TTITLE4=The girl from ipanema
TTITLE5=Ain't she sweet
TTITLE6=See You later, alligator
TTITLE7=Judy in disguise
TTITLE8=How high the moon
TTITLE9=Let me go, lover!
TTITLE10=Rain and tears
TTITLE11=That'll be the day
TTITLE12=Eloise
TTITLE13=The boy from New Your City
TTITLE14=A walk in the black forest
TTITLE15=Yeah, yeah
TTITLE16=Lollipop
TTITLE17=Creeque alley
TTITLE18=You've got the troubles
TTITLE19=Wooly bully
TTITLE20=Let it be me
EXTD=.
EXTT0=
EXTT1=
EXTT2=
EXTT3=
EXTT4=
EXTT5=
EXTT6=
EXTT7=
EXTT8=
EXTT9=
EXTT10=
EXTT11=
EXTT12=
EXTT13=
EXTT14=
EXTT15=
EXTT16=
EXTT17=
EXTT18=
EXTT19=
EXTT20=
PLAYORDER=
